<mxfile host="app.diagrams.net" agent="Mozilla/5.0 (Windows NT 10.0; Win64; x64) AppleWebKit/537.36 (KHTML, like Gecko) Chrome/132.0.0.0 Safari/537.36" version="26.0.11">
  <diagram name="Page-1" id="fcHgZ_ExSzVl2j9sRVPm">
    <mxGraphModel dx="2570" dy="871" grid="1" gridSize="10" guides="1" tooltips="1" connect="1" arrows="1" fold="1" page="1" pageScale="1" pageWidth="850" pageHeight="1100" math="0" shadow="0">
      <root>
        <mxCell id="0" />
        <mxCell id="1" parent="0" />
        <mxCell id="MMwDp0h1D9uucDzODPKg-17" style="edgeStyle=orthogonalEdgeStyle;rounded=0;orthogonalLoop=1;jettySize=auto;html=1;entryX=0;entryY=0.5;entryDx=0;entryDy=0;" edge="1" parent="1" source="MMwDp0h1D9uucDzODPKg-7" target="MMwDp0h1D9uucDzODPKg-12">
          <mxGeometry relative="1" as="geometry" />
        </mxCell>
        <mxCell id="MMwDp0h1D9uucDzODPKg-18" style="edgeStyle=orthogonalEdgeStyle;rounded=0;orthogonalLoop=1;jettySize=auto;html=1;entryX=0;entryY=0.75;entryDx=0;entryDy=0;" edge="1" parent="1" source="MMwDp0h1D9uucDzODPKg-7" target="MMwDp0h1D9uucDzODPKg-13">
          <mxGeometry relative="1" as="geometry" />
        </mxCell>
        <mxCell id="MMwDp0h1D9uucDzODPKg-19" style="edgeStyle=orthogonalEdgeStyle;rounded=0;orthogonalLoop=1;jettySize=auto;html=1;entryX=0;entryY=0.75;entryDx=0;entryDy=0;" edge="1" parent="1" source="MMwDp0h1D9uucDzODPKg-7" target="MMwDp0h1D9uucDzODPKg-14">
          <mxGeometry relative="1" as="geometry" />
        </mxCell>
        <mxCell id="MMwDp0h1D9uucDzODPKg-20" style="edgeStyle=orthogonalEdgeStyle;rounded=0;orthogonalLoop=1;jettySize=auto;html=1;entryX=0;entryY=0.5;entryDx=0;entryDy=0;" edge="1" parent="1" source="MMwDp0h1D9uucDzODPKg-7" target="MMwDp0h1D9uucDzODPKg-15">
          <mxGeometry relative="1" as="geometry" />
        </mxCell>
        <mxCell id="MMwDp0h1D9uucDzODPKg-21" style="edgeStyle=orthogonalEdgeStyle;rounded=0;orthogonalLoop=1;jettySize=auto;html=1;entryX=0;entryY=0.5;entryDx=0;entryDy=0;" edge="1" parent="1" source="MMwDp0h1D9uucDzODPKg-7" target="MMwDp0h1D9uucDzODPKg-11">
          <mxGeometry relative="1" as="geometry" />
        </mxCell>
        <mxCell id="MMwDp0h1D9uucDzODPKg-7" value="AI assistance portal" style="rounded=1;whiteSpace=wrap;html=1;" vertex="1" parent="1">
          <mxGeometry x="50" y="290" width="120" height="60" as="geometry" />
        </mxCell>
        <mxCell id="MMwDp0h1D9uucDzODPKg-9" value="Request" style="endArrow=classic;html=1;rounded=0;" edge="1" parent="1">
          <mxGeometry width="50" height="50" relative="1" as="geometry">
            <mxPoint x="-100" y="310" as="sourcePoint" />
            <mxPoint x="30" y="310" as="targetPoint" />
          </mxGeometry>
        </mxCell>
        <mxCell id="MMwDp0h1D9uucDzODPKg-10" value="Response" style="endArrow=classic;html=1;rounded=0;" edge="1" parent="1">
          <mxGeometry width="50" height="50" relative="1" as="geometry">
            <mxPoint x="25" y="334" as="sourcePoint" />
            <mxPoint x="-95" y="334" as="targetPoint" />
          </mxGeometry>
        </mxCell>
        <mxCell id="MMwDp0h1D9uucDzODPKg-11" value="Progress Overview" style="rounded=0;whiteSpace=wrap;html=1;" vertex="1" parent="1">
          <mxGeometry x="290" y="160" width="120" height="60" as="geometry" />
        </mxCell>
        <mxCell id="MMwDp0h1D9uucDzODPKg-12" value="Profile Information" style="rounded=0;whiteSpace=wrap;html=1;" vertex="1" parent="1">
          <mxGeometry x="290" y="260" width="120" height="60" as="geometry" />
        </mxCell>
        <mxCell id="MMwDp0h1D9uucDzODPKg-13" value="Language translation" style="rounded=0;whiteSpace=wrap;html=1;" vertex="1" parent="1">
          <mxGeometry x="290" y="360" width="120" height="60" as="geometry" />
        </mxCell>
        <mxCell id="MMwDp0h1D9uucDzODPKg-14" value="Teacher materials" style="rounded=0;whiteSpace=wrap;html=1;" vertex="1" parent="1">
          <mxGeometry x="290" y="480" width="120" height="60" as="geometry" />
        </mxCell>
        <mxCell id="MMwDp0h1D9uucDzODPKg-15" value="Quizzes/Flashcards" style="rounded=0;whiteSpace=wrap;html=1;" vertex="1" parent="1">
          <mxGeometry x="290" y="580" width="120" height="60" as="geometry" />
        </mxCell>
        <mxCell id="MMwDp0h1D9uucDzODPKg-22" value="Student&amp;nbsp;" style="text;html=1;align=center;verticalAlign=middle;resizable=0;points=[];autosize=1;strokeColor=none;fillColor=none;" vertex="1" parent="1">
          <mxGeometry x="-175" y="340" width="70" height="30" as="geometry" />
        </mxCell>
        <mxCell id="MMwDp0h1D9uucDzODPKg-23" value="" style="sketch=0;outlineConnect=0;fontColor=#232F3E;gradientColor=none;fillColor=#232F3D;strokeColor=none;dashed=0;verticalLabelPosition=bottom;verticalAlign=top;align=center;html=1;fontSize=12;fontStyle=0;aspect=fixed;pointerEvents=1;shape=mxgraph.aws4.user;" vertex="1" parent="1">
          <mxGeometry x="-183" y="262" width="78" height="78" as="geometry" />
        </mxCell>
        <mxCell id="MMwDp0h1D9uucDzODPKg-40" style="edgeStyle=orthogonalEdgeStyle;rounded=0;orthogonalLoop=1;jettySize=auto;html=1;entryX=0;entryY=0.5;entryDx=0;entryDy=0;" edge="1" parent="1" source="MMwDp0h1D9uucDzODPKg-24" target="MMwDp0h1D9uucDzODPKg-29">
          <mxGeometry relative="1" as="geometry" />
        </mxCell>
        <mxCell id="MMwDp0h1D9uucDzODPKg-41" style="edgeStyle=orthogonalEdgeStyle;rounded=0;orthogonalLoop=1;jettySize=auto;html=1;entryX=0;entryY=0.5;entryDx=0;entryDy=0;" edge="1" parent="1" source="MMwDp0h1D9uucDzODPKg-24" target="MMwDp0h1D9uucDzODPKg-33">
          <mxGeometry relative="1" as="geometry" />
        </mxCell>
        <mxCell id="MMwDp0h1D9uucDzODPKg-42" style="edgeStyle=orthogonalEdgeStyle;rounded=0;orthogonalLoop=1;jettySize=auto;html=1;entryX=0;entryY=0.5;entryDx=0;entryDy=0;" edge="1" parent="1" source="MMwDp0h1D9uucDzODPKg-24" target="MMwDp0h1D9uucDzODPKg-32">
          <mxGeometry relative="1" as="geometry" />
        </mxCell>
        <mxCell id="MMwDp0h1D9uucDzODPKg-43" style="edgeStyle=orthogonalEdgeStyle;rounded=0;orthogonalLoop=1;jettySize=auto;html=1;entryX=0;entryY=0.5;entryDx=0;entryDy=0;" edge="1" parent="1" source="MMwDp0h1D9uucDzODPKg-24" target="MMwDp0h1D9uucDzODPKg-31">
          <mxGeometry relative="1" as="geometry" />
        </mxCell>
        <mxCell id="MMwDp0h1D9uucDzODPKg-44" style="edgeStyle=orthogonalEdgeStyle;rounded=0;orthogonalLoop=1;jettySize=auto;html=1;entryX=0;entryY=0.5;entryDx=0;entryDy=0;" edge="1" parent="1" source="MMwDp0h1D9uucDzODPKg-24" target="MMwDp0h1D9uucDzODPKg-30">
          <mxGeometry relative="1" as="geometry" />
        </mxCell>
        <mxCell id="MMwDp0h1D9uucDzODPKg-24" value="AI assistance portal" style="rounded=1;whiteSpace=wrap;html=1;" vertex="1" parent="1">
          <mxGeometry x="33" y="1004" width="120" height="60" as="geometry" />
        </mxCell>
        <mxCell id="MMwDp0h1D9uucDzODPKg-25" value="Request" style="endArrow=classic;html=1;rounded=0;" edge="1" parent="1">
          <mxGeometry width="50" height="50" relative="1" as="geometry">
            <mxPoint x="-117" y="1024" as="sourcePoint" />
            <mxPoint x="13" y="1024" as="targetPoint" />
          </mxGeometry>
        </mxCell>
        <mxCell id="MMwDp0h1D9uucDzODPKg-26" value="Response" style="endArrow=classic;html=1;rounded=0;" edge="1" parent="1">
          <mxGeometry width="50" height="50" relative="1" as="geometry">
            <mxPoint x="8" y="1048" as="sourcePoint" />
            <mxPoint x="-112" y="1048" as="targetPoint" />
          </mxGeometry>
        </mxCell>
        <mxCell id="MMwDp0h1D9uucDzODPKg-27" value="Teacher" style="text;html=1;align=center;verticalAlign=middle;resizable=0;points=[];autosize=1;strokeColor=none;fillColor=none;" vertex="1" parent="1">
          <mxGeometry x="-192" y="1054" width="70" height="30" as="geometry" />
        </mxCell>
        <mxCell id="MMwDp0h1D9uucDzODPKg-28" value="" style="sketch=0;outlineConnect=0;fontColor=#232F3E;gradientColor=none;fillColor=#232F3D;strokeColor=none;dashed=0;verticalLabelPosition=bottom;verticalAlign=top;align=center;html=1;fontSize=12;fontStyle=0;aspect=fixed;pointerEvents=1;shape=mxgraph.aws4.user;" vertex="1" parent="1">
          <mxGeometry x="-200" y="976" width="78" height="78" as="geometry" />
        </mxCell>
        <mxCell id="MMwDp0h1D9uucDzODPKg-29" value="Progress Overview" style="rounded=0;whiteSpace=wrap;html=1;" vertex="1" parent="1">
          <mxGeometry x="280" y="760" width="120" height="60" as="geometry" />
        </mxCell>
        <mxCell id="MMwDp0h1D9uucDzODPKg-30" value="Profile Information" style="rounded=0;whiteSpace=wrap;html=1;" vertex="1" parent="1">
          <mxGeometry x="280" y="850" width="120" height="60" as="geometry" />
        </mxCell>
        <mxCell id="MMwDp0h1D9uucDzODPKg-31" value="Teaching, Provide assistance to students" style="rounded=0;whiteSpace=wrap;html=1;" vertex="1" parent="1">
          <mxGeometry x="280" y="940" width="120" height="60" as="geometry" />
        </mxCell>
        <mxCell id="MMwDp0h1D9uucDzODPKg-32" value="Assign work to students, quizzes, flashcards" style="rounded=0;whiteSpace=wrap;html=1;" vertex="1" parent="1">
          <mxGeometry x="280" y="1050" width="120" height="60" as="geometry" />
        </mxCell>
        <mxCell id="MMwDp0h1D9uucDzODPKg-33" value="Assign work to students, quizzes, flashcards" style="rounded=0;whiteSpace=wrap;html=1;" vertex="1" parent="1">
          <mxGeometry x="280" y="1170" width="120" height="60" as="geometry" />
        </mxCell>
        <mxCell id="MMwDp0h1D9uucDzODPKg-45" value="Large Language Model" style="rounded=0;whiteSpace=wrap;html=1;" vertex="1" parent="1">
          <mxGeometry x="710" y="350" width="120" height="60" as="geometry" />
        </mxCell>
        <mxCell id="MMwDp0h1D9uucDzODPKg-48" value="Request" style="endArrow=classic;html=1;rounded=0;" edge="1" parent="1">
          <mxGeometry width="50" height="50" relative="1" as="geometry">
            <mxPoint x="580" y="367.33" as="sourcePoint" />
            <mxPoint x="710" y="367.33" as="targetPoint" />
          </mxGeometry>
        </mxCell>
        <mxCell id="MMwDp0h1D9uucDzODPKg-49" value="Response" style="endArrow=classic;html=1;rounded=0;" edge="1" parent="1">
          <mxGeometry width="50" height="50" relative="1" as="geometry">
            <mxPoint x="705" y="391.33" as="sourcePoint" />
            <mxPoint x="585" y="391.33" as="targetPoint" />
          </mxGeometry>
        </mxCell>
        <mxCell id="MMwDp0h1D9uucDzODPKg-76" value="" style="edgeStyle=orthogonalEdgeStyle;rounded=0;orthogonalLoop=1;jettySize=auto;html=1;exitX=0.5;exitY=1;exitDx=0;exitDy=0;exitPerimeter=0;entryX=1;entryY=0.5;entryDx=0;entryDy=0;" edge="1" parent="1" source="MMwDp0h1D9uucDzODPKg-50" target="MMwDp0h1D9uucDzODPKg-75">
          <mxGeometry relative="1" as="geometry">
            <mxPoint x="1310" y="510" as="sourcePoint" />
            <mxPoint x="900" y="640" as="targetPoint" />
          </mxGeometry>
        </mxCell>
        <mxCell id="MMwDp0h1D9uucDzODPKg-50" value="Vector Database" style="shape=cylinder3;whiteSpace=wrap;html=1;boundedLbl=1;backgroundOutline=1;size=15;" vertex="1" parent="1">
          <mxGeometry x="1290" y="350" width="60" height="80" as="geometry" />
        </mxCell>
        <mxCell id="MMwDp0h1D9uucDzODPKg-51" value="Data" style="shape=note;whiteSpace=wrap;html=1;backgroundOutline=1;darkOpacity=0.05;" vertex="1" parent="1">
          <mxGeometry x="730" y="120" width="80" height="100" as="geometry" />
        </mxCell>
        <mxCell id="MMwDp0h1D9uucDzODPKg-52" value="Chunks&lt;span style=&quot;color: rgba(0, 0, 0, 0); font-family: monospace; font-size: 0px; text-align: start; text-wrap-mode: nowrap;&quot;&gt;%3CmxGraphModel%3E%3Croot%3E%3CmxCell%20id%3D%220%22%2F%3E%3CmxCell%20id%3D%221%22%20parent%3D%220%22%2F%3E%3CmxCell%20id%3D%222%22%20value%3D%22Request%22%20style%3D%22endArrow%3Dclassic%3Bhtml%3D1%3Brounded%3D0%3B%22%20edge%3D%221%22%20parent%3D%221%22%3E%3CmxGeometry%20width%3D%2250%22%20height%3D%2250%22%20relative%3D%221%22%20as%3D%22geometry%22%3E%3CmxPoint%20x%3D%22-100%22%20y%3D%22310%22%20as%3D%22sourcePoint%22%2F%3E%3CmxPoint%20x%3D%2230%22%20y%3D%22310%22%20as%3D%22targetPoint%22%2F%3E%3C%2FmxGeometry%3E%3C%2FmxCell%3E%3CmxCell%20id%3D%223%22%20value%3D%22Response%22%20style%3D%22endArrow%3Dclassic%3Bhtml%3D1%3Brounded%3D0%3B%22%20edge%3D%221%22%20parent%3D%221%22%3E%3CmxGeometry%20width%3D%2250%22%20height%3D%2250%22%20relative%3D%221%22%20as%3D%22geometry%22%3E%3CmxPoint%20x%3D%2225%22%20y%3D%22334%22%20as%3D%22sourcePoint%22%2F%3E%3CmxPoint%20x%3D%22-95%22%20y%3D%22334%22%20as%3D%22targetPoint%22%2F%3E%3C%2FmxGeometry%3E%3C%2FmxCell%3E%3C%2Froot%3E%3C%2FmxGraphModel%3E&lt;/span&gt;" style="rounded=1;whiteSpace=wrap;html=1;" vertex="1" parent="1">
          <mxGeometry x="910" y="110" width="120" height="30" as="geometry" />
        </mxCell>
        <mxCell id="MMwDp0h1D9uucDzODPKg-53" value="Chunks&lt;span style=&quot;color: rgba(0, 0, 0, 0); font-family: monospace; font-size: 0px; text-align: start; text-wrap-mode: nowrap;&quot;&gt;%3CmxGraphModel%3E%3Croot%3E%3CmxCell%20id%3D%220%22%2F%3E%3CmxCell%20id%3D%221%22%20parent%3D%220%22%2F%3E%3CmxCell%20id%3D%222%22%20value%3D%22Request%22%20style%3D%22endArrow%3Dclassic%3Bhtml%3D1%3Brounded%3D0%3B%22%20edge%3D%221%22%20parent%3D%221%22%3E%3CmxGeometry%20width%3D%2250%22%20height%3D%2250%22%20relative%3D%221%22%20as%3D%22geometry%22%3E%3CmxPoint%20x%3D%22-100%22%20y%3D%22310%22%20as%3D%22sourcePoint%22%2F%3E%3CmxPoint%20x%3D%2230%22%20y%3D%22310%22%20as%3D%22targetPoint%22%2F%3E%3C%2FmxGeometry%3E%3C%2FmxCell%3E%3CmxCell%20id%3D%223%22%20value%3D%22Response%22%20style%3D%22endArrow%3Dclassic%3Bhtml%3D1%3Brounded%3D0%3B%22%20edge%3D%221%22%20parent%3D%221%22%3E%3CmxGeometry%20width%3D%2250%22%20height%3D%2250%22%20relative%3D%221%22%20as%3D%22geometry%22%3E%3CmxPoint%20x%3D%2225%22%20y%3D%22334%22%20as%3D%22sourcePoint%22%2F%3E%3CmxPoint%20x%3D%22-95%22%20y%3D%22334%22%20as%3D%22targetPoint%22%2F%3E%3C%2FmxGeometry%3E%3C%2FmxCell%3E%3C%2Froot%3E%3C%2FmxGraphModel%3E&lt;/span&gt;" style="rounded=1;whiteSpace=wrap;html=1;" vertex="1" parent="1">
          <mxGeometry x="910" y="150" width="120" height="30" as="geometry" />
        </mxCell>
        <mxCell id="MMwDp0h1D9uucDzODPKg-54" value="Chunks&lt;span style=&quot;color: rgba(0, 0, 0, 0); font-family: monospace; font-size: 0px; text-align: start; text-wrap-mode: nowrap;&quot;&gt;%3CmxGraphModel%3E%3Croot%3E%3CmxCell%20id%3D%220%22%2F%3E%3CmxCell%20id%3D%221%22%20parent%3D%220%22%2F%3E%3CmxCell%20id%3D%222%22%20value%3D%22Request%22%20style%3D%22endArrow%3Dclassic%3Bhtml%3D1%3Brounded%3D0%3B%22%20edge%3D%221%22%20parent%3D%221%22%3E%3CmxGeometry%20width%3D%2250%22%20height%3D%2250%22%20relative%3D%221%22%20as%3D%22geometry%22%3E%3CmxPoint%20x%3D%22-100%22%20y%3D%22310%22%20as%3D%22sourcePoint%22%2F%3E%3CmxPoint%20x%3D%2230%22%20y%3D%22310%22%20as%3D%22targetPoint%22%2F%3E%3C%2FmxGeometry%3E%3C%2FmxCell%3E%3CmxCell%20id%3D%223%22%20value%3D%22Response%22%20style%3D%22endArrow%3Dclassic%3Bhtml%3D1%3Brounded%3D0%3B%22%20edge%3D%221%22%20parent%3D%221%22%3E%3CmxGeometry%20width%3D%2250%22%20height%3D%2250%22%20relative%3D%221%22%20as%3D%22geometry%22%3E%3CmxPoint%20x%3D%2225%22%20y%3D%22334%22%20as%3D%22sourcePoint%22%2F%3E%3CmxPoint%20x%3D%22-95%22%20y%3D%22334%22%20as%3D%22targetPoint%22%2F%3E%3C%2FmxGeometry%3E%3C%2FmxCell%3E%3C%2Froot%3E%3C%2FmxGraphModel%3E&lt;/span&gt;" style="rounded=1;whiteSpace=wrap;html=1;" vertex="1" parent="1">
          <mxGeometry x="910" y="190" width="120" height="30" as="geometry" />
        </mxCell>
        <mxCell id="MMwDp0h1D9uucDzODPKg-55" value="Vectors" style="rounded=1;whiteSpace=wrap;html=1;" vertex="1" parent="1">
          <mxGeometry x="1260" y="120" width="120" height="30" as="geometry" />
        </mxCell>
        <mxCell id="MMwDp0h1D9uucDzODPKg-57" value="" style="shape=flexArrow;endArrow=classic;html=1;rounded=0;exitX=1.085;exitY=0.582;exitDx=0;exitDy=0;exitPerimeter=0;" edge="1" parent="1">
          <mxGeometry width="50" height="50" relative="1" as="geometry">
            <mxPoint x="818.8000000000002" y="178.20000000000005" as="sourcePoint" />
            <mxPoint x="902" y="178" as="targetPoint" />
          </mxGeometry>
        </mxCell>
        <mxCell id="MMwDp0h1D9uucDzODPKg-58" value="Embedding Model" style="rounded=1;whiteSpace=wrap;html=1;" vertex="1" parent="1">
          <mxGeometry x="1090" y="150" width="90" height="50" as="geometry" />
        </mxCell>
        <mxCell id="MMwDp0h1D9uucDzODPKg-59" value="Vector Database" style="shape=cylinder3;whiteSpace=wrap;html=1;boundedLbl=1;backgroundOutline=1;size=15;" vertex="1" parent="1">
          <mxGeometry x="1460" y="130" width="60" height="80" as="geometry" />
        </mxCell>
        <mxCell id="MMwDp0h1D9uucDzODPKg-60" value="Vectors" style="rounded=1;whiteSpace=wrap;html=1;" vertex="1" parent="1">
          <mxGeometry x="1260" y="165" width="120" height="30" as="geometry" />
        </mxCell>
        <mxCell id="MMwDp0h1D9uucDzODPKg-61" value="Vectors" style="rounded=1;whiteSpace=wrap;html=1;" vertex="1" parent="1">
          <mxGeometry x="1260" y="210" width="120" height="30" as="geometry" />
        </mxCell>
        <mxCell id="MMwDp0h1D9uucDzODPKg-62" value="Vectors" style="rounded=1;whiteSpace=wrap;html=1;" vertex="1" parent="1">
          <mxGeometry x="1260" y="252" width="120" height="30" as="geometry" />
        </mxCell>
        <mxCell id="MMwDp0h1D9uucDzODPKg-63" value="Chunks&lt;span style=&quot;color: rgba(0, 0, 0, 0); font-family: monospace; font-size: 0px; text-align: start; text-wrap-mode: nowrap;&quot;&gt;%3CmxGraphModel%3E%3Croot%3E%3CmxCell%20id%3D%220%22%2F%3E%3CmxCell%20id%3D%221%22%20parent%3D%220%22%2F%3E%3CmxCell%20id%3D%222%22%20value%3D%22Request%22%20style%3D%22endArrow%3Dclassic%3Bhtml%3D1%3Brounded%3D0%3B%22%20edge%3D%221%22%20parent%3D%221%22%3E%3CmxGeometry%20width%3D%2250%22%20height%3D%2250%22%20relative%3D%221%22%20as%3D%22geometry%22%3E%3CmxPoint%20x%3D%22-100%22%20y%3D%22310%22%20as%3D%22sourcePoint%22%2F%3E%3CmxPoint%20x%3D%2230%22%20y%3D%22310%22%20as%3D%22targetPoint%22%2F%3E%3C%2FmxGeometry%3E%3C%2FmxCell%3E%3CmxCell%20id%3D%223%22%20value%3D%22Response%22%20style%3D%22endArrow%3Dclassic%3Bhtml%3D1%3Brounded%3D0%3B%22%20edge%3D%221%22%20parent%3D%221%22%3E%3CmxGeometry%20width%3D%2250%22%20height%3D%2250%22%20relative%3D%221%22%20as%3D%22geometry%22%3E%3CmxPoint%20x%3D%2225%22%20y%3D%22334%22%20as%3D%22sourcePoint%22%2F%3E%3CmxPoint%20x%3D%22-95%22%20y%3D%22334%22%20as%3D%22targetPoint%22%2F%3E%3C%2FmxGeometry%3E%3C%2FmxCell%3E%3C%2Froot%3E%3C%2FmxGraphModel%3E&lt;/span&gt;" style="rounded=1;whiteSpace=wrap;html=1;" vertex="1" parent="1">
          <mxGeometry x="910" y="240" width="120" height="30" as="geometry" />
        </mxCell>
        <mxCell id="MMwDp0h1D9uucDzODPKg-65" value="" style="curved=1;endArrow=classic;html=1;rounded=0;exitX=0.5;exitY=1;exitDx=0;exitDy=0;exitPerimeter=0;entryX=1;entryY=0.5;entryDx=0;entryDy=0;entryPerimeter=0;" edge="1" parent="1" source="MMwDp0h1D9uucDzODPKg-59" target="MMwDp0h1D9uucDzODPKg-50">
          <mxGeometry width="50" height="50" relative="1" as="geometry">
            <mxPoint x="900" y="440" as="sourcePoint" />
            <mxPoint x="1460" y="340" as="targetPoint" />
            <Array as="points">
              <mxPoint x="1530" y="610" />
            </Array>
          </mxGeometry>
        </mxCell>
        <mxCell id="MMwDp0h1D9uucDzODPKg-66" value="" style="shape=flexArrow;endArrow=classic;html=1;rounded=0;exitX=1.085;exitY=0.582;exitDx=0;exitDy=0;exitPerimeter=0;" edge="1" parent="1">
          <mxGeometry width="50" height="50" relative="1" as="geometry">
            <mxPoint x="1036.0000000000002" y="179.20000000000005" as="sourcePoint" />
            <mxPoint x="1086" y="179" as="targetPoint" />
          </mxGeometry>
        </mxCell>
        <mxCell id="MMwDp0h1D9uucDzODPKg-68" value="" style="shape=flexArrow;endArrow=classic;html=1;rounded=0;exitX=1.085;exitY=0.582;exitDx=0;exitDy=0;exitPerimeter=0;" edge="1" parent="1">
          <mxGeometry width="50" height="50" relative="1" as="geometry">
            <mxPoint x="1200.0000000000002" y="180.20000000000005" as="sourcePoint" />
            <mxPoint x="1250" y="180" as="targetPoint" />
          </mxGeometry>
        </mxCell>
        <mxCell id="MMwDp0h1D9uucDzODPKg-69" value="" style="shape=flexArrow;endArrow=classic;html=1;rounded=0;exitX=1.085;exitY=0.582;exitDx=0;exitDy=0;exitPerimeter=0;" edge="1" parent="1">
          <mxGeometry width="50" height="50" relative="1" as="geometry">
            <mxPoint x="1400.0000000000002" y="179.20000000000005" as="sourcePoint" />
            <mxPoint x="1450" y="179" as="targetPoint" />
          </mxGeometry>
        </mxCell>
        <mxCell id="MMwDp0h1D9uucDzODPKg-79" value="" style="edgeStyle=orthogonalEdgeStyle;rounded=0;orthogonalLoop=1;jettySize=auto;html=1;" edge="1" parent="1" source="MMwDp0h1D9uucDzODPKg-71" target="MMwDp0h1D9uucDzODPKg-78">
          <mxGeometry relative="1" as="geometry" />
        </mxCell>
        <mxCell id="MMwDp0h1D9uucDzODPKg-71" value="User Query |&amp;nbsp;&lt;div&gt;prompt Instructions&lt;/div&gt;" style="rounded=1;whiteSpace=wrap;html=1;" vertex="1" parent="1">
          <mxGeometry x="880" y="350" width="120" height="60" as="geometry" />
        </mxCell>
        <mxCell id="MMwDp0h1D9uucDzODPKg-72" value="" style="endArrow=classic;html=1;rounded=0;exitX=1;exitY=0.5;exitDx=0;exitDy=0;entryX=0;entryY=0.5;entryDx=0;entryDy=0;" edge="1" parent="1" source="MMwDp0h1D9uucDzODPKg-45" target="MMwDp0h1D9uucDzODPKg-71">
          <mxGeometry width="50" height="50" relative="1" as="geometry">
            <mxPoint x="900" y="420" as="sourcePoint" />
            <mxPoint x="950" y="370" as="targetPoint" />
          </mxGeometry>
        </mxCell>
        <mxCell id="MMwDp0h1D9uucDzODPKg-74" value="" style="endArrow=classic;html=1;rounded=0;entryX=0.153;entryY=0.433;entryDx=0;entryDy=0;entryPerimeter=0;" edge="1" parent="1" target="MMwDp0h1D9uucDzODPKg-50">
          <mxGeometry width="50" height="50" relative="1" as="geometry">
            <mxPoint x="1170" y="385" as="sourcePoint" />
            <mxPoint x="1130" y="379.5" as="targetPoint" />
          </mxGeometry>
        </mxCell>
        <mxCell id="MMwDp0h1D9uucDzODPKg-77" value="" style="edgeStyle=orthogonalEdgeStyle;rounded=0;orthogonalLoop=1;jettySize=auto;html=1;" edge="1" parent="1" source="MMwDp0h1D9uucDzODPKg-75" target="MMwDp0h1D9uucDzODPKg-45">
          <mxGeometry relative="1" as="geometry" />
        </mxCell>
        <mxCell id="MMwDp0h1D9uucDzODPKg-75" value="&lt;span style=&quot;color: rgb(0, 0, 0); font-family: Helvetica; font-size: 12px; font-style: normal; font-variant-ligatures: normal; font-variant-caps: normal; font-weight: 400; letter-spacing: normal; orphans: 2; text-align: center; text-indent: 0px; text-transform: none; widows: 2; word-spacing: 0px; -webkit-text-stroke-width: 0px; white-space: normal; background-color: rgb(251, 251, 251); text-decoration-thickness: initial; text-decoration-style: initial; text-decoration-color: initial; float: none; display: inline !important;&quot;&gt;User Query |&amp;nbsp;&lt;/span&gt;&lt;div style=&quot;forced-color-adjust: none; color: rgb(0, 0, 0); font-family: Helvetica; font-size: 12px; font-style: normal; font-variant-ligatures: normal; font-variant-caps: normal; font-weight: 400; letter-spacing: normal; orphans: 2; text-align: center; text-indent: 0px; text-transform: none; widows: 2; word-spacing: 0px; -webkit-text-stroke-width: 0px; white-space: normal; background-color: rgb(251, 251, 251); text-decoration-thickness: initial; text-decoration-style: initial; text-decoration-color: initial;&quot;&gt;prompt Instructions | Relevant chunks given for generation llm output&lt;/div&gt;" style="whiteSpace=wrap;html=1;" vertex="1" parent="1">
          <mxGeometry x="680" y="510" width="180" height="80" as="geometry" />
        </mxCell>
        <mxCell id="MMwDp0h1D9uucDzODPKg-78" value="Vectors" style="rounded=1;whiteSpace=wrap;html=1;" vertex="1" parent="1">
          <mxGeometry x="1075" y="370" width="120" height="20" as="geometry" />
        </mxCell>
        <mxCell id="MMwDp0h1D9uucDzODPKg-80" value="" style="sketch=0;outlineConnect=0;fontColor=#232F3E;gradientColor=none;fillColor=#232F3D;strokeColor=none;dashed=0;verticalLabelPosition=bottom;verticalAlign=top;align=center;html=1;fontSize=12;fontStyle=0;aspect=fixed;pointerEvents=1;shape=mxgraph.aws4.user;" vertex="1" parent="1">
          <mxGeometry x="500" y="340" width="78" height="78" as="geometry" />
        </mxCell>
      </root>
    </mxGraphModel>
  </diagram>
</mxfile>
